<svg xmlns="http://www.w3.org/2000/svg" width="27.725" height="25.754" viewBox="0 0 27.725 25.754"><defs><style>.a{fill:#1e1e1e;}</style></defs><g transform="translate(0 0)"><path class="a" d="M6.083,32.431a.472.472,0,0,0,.345.126.739.739,0,0,0,.251-.063l7.158-3.077L21,32.494h.031c.031,0,.031,0,.063.031.031,0,.094.031.126.031h.031a.235.235,0,0,0,.157-.031h.031c.031,0,.031,0,.063-.031l4.584-1.978,2.731,3.234a2.665,2.665,0,1,0,3.736-3.767l-3.328-2.826V9.606a.617.617,0,0,0-.283-.534.675.675,0,0,0-.6-.063l-7.1,3.108L14.088,9.041h0a.11.11,0,0,1-.063-.031h-.314a.115.115,0,0,0-.094.031h0L6.177,12.212a.62.62,0,0,0-.377.565V31.9A.582.582,0,0,0,6.083,32.431ZM32.3,31.96a1.279,1.279,0,0,1-.44,1.067,1.407,1.407,0,0,1-1,.44,1.429,1.429,0,0,1-1.1-.534l-3.893-4.615,1.287-1.287,4.615,3.924A1.346,1.346,0,0,1,32.3,31.96ZM7.056,13.217l6.781-2.92L21,13.374h0c.031,0,.063.031.094.031h.031a.854.854,0,0,0,.283,0h.031c.031,0,.031,0,.063-.031L28,10.548V26.089l-.471-.377a.627.627,0,0,0-.848.031l-.6.6-.628-.628a5.958,5.958,0,0,0,1.319-3.736,5.972,5.972,0,1,0-2.229,4.647l.628.628-.6.6a.627.627,0,0,0-.031.848l.691.816-3.987,1.727-7.158-3.077h0c-.031,0-.031,0-.063-.031H13.68c-.031,0-.063,0-.063.031h0L7.056,30.955ZM24.135,25.3h0a4.7,4.7,0,1,1,1.381-3.328A4.76,4.76,0,0,1,24.135,25.3Z" transform="translate(-5.8 -8.969)"/></g></svg>